<svg width="240" height="51" viewBox="0 0 240 51" fill="none" xmlns="http://www.w3.org/2000/svg">
<path d="M68.6887 34.3157L66.8467 29.6522H54.8195L52.937 34.3157H50.1111L59.1011 12.3774H62.6549L71.4743 34.3157H68.6887ZM60.8533 14.5115L55.5024 27.6844H66.1638L60.8533 14.5115Z" fill="#22314E"/>
<path d="M75.4929 18.8786V29.185C75.4929 31.5797 76.6071 32.5187 80.9337 32.3075V34.4012C75.2817 34.7426 72.8826 33.3768 72.8826 29.185V18.8786H70.4879L70.4475 17.2522L72.8871 16.6951V12.418H75.412V16.7355H80.9337V18.8741H75.4929V18.8786Z" fill="#22314E"/>
<path d="M89.9199 34.4865C82.7719 34.4865 81.1455 30.1689 81.1455 25.465C81.1455 20.8464 82.8168 16.4839 89.8795 16.4839C96.5558 16.4839 98.1417 21.1025 97.8002 26.6196H83.8456C84.0164 30.0835 85.6023 32.4782 89.839 32.4782C93.5186 32.4782 94.8485 30.6811 95.1495 28.8435H97.8452C97.5397 31.8357 95.5269 34.4865 89.9199 34.4865ZM89.6638 18.5326C85.2115 18.5326 83.967 21.3136 83.8412 24.5619H95.145V24.4766C95.1854 21.098 93.7298 18.5326 89.6638 18.5326Z" fill="#22314E"/>
<path d="M114.061 34.3157H113.675V24.6518C113.675 20.8868 112.947 18.6629 108.454 18.6629C103.961 18.6629 102.977 20.8464 102.977 24.6518V34.3157H100.407V16.74H100.623H101.607L102.38 19.8625C103.067 18.0654 104.95 16.4839 109.141 16.4839C115.094 16.4839 116.249 19.8175 116.249 24.8674V34.3202H114.061V34.3157Z" fill="#22314E"/>
<path d="M122.538 18.8786V29.185C122.538 31.5797 123.652 32.5187 127.974 32.3075V34.4012C122.323 34.7426 119.928 33.3768 119.928 29.185V18.8786H117.529L117.488 17.2522L119.928 16.6951V12.418H122.453V16.7355H127.974V18.8741H122.538V18.8786Z" fill="#22314E"/>
<path d="M143.083 34.3159L142.526 30.7666C141.587 32.9052 138.847 34.4867 135.163 34.4867C131.438 34.4867 128.396 32.9052 128.396 29.311C128.396 26.1031 130.62 24.8227 135.589 24.2206L141.969 23.4479C141.924 20.3254 140.9 18.5732 136.488 18.5732C132.462 18.5732 131.393 20.285 131.393 22.8908H128.868C128.868 19.2561 130.409 16.52 136.448 16.52C143.51 16.52 144.539 19.5976 144.539 24.2611V34.3115H143.083V34.3159ZM141.974 25.4202L135.98 26.2334C132.386 26.7052 131.056 27.4734 131.056 29.2705C131.056 31.3642 132.853 32.438 135.72 32.438C139.233 32.438 141.969 30.4701 141.969 26.6198V25.4202H141.974Z" fill="#22314E"/>
<path d="M170.565 34.3158V15.7112L162.046 34.3158H159.391L150.832 15.7112V34.3158H148.177V12.418H148.433H152.158L160.721 31.4494L169.194 12.418H173.265V34.3158H170.565Z" fill="#F15D4A"/>
<path d="M185.032 34.4865C177.884 34.4865 176.258 30.1689 176.258 25.465C176.258 20.8464 177.929 16.4839 184.992 16.4839C191.672 16.4839 193.254 21.1025 192.912 26.6196H178.958C179.128 30.0835 180.71 32.4782 184.951 32.4782C188.631 32.4782 189.961 30.6811 190.262 28.8435H192.957C192.652 31.8357 190.639 34.4865 185.032 34.4865ZM184.776 18.5326C180.324 18.5326 179.084 21.3136 178.958 24.5619H190.257V24.4766C190.297 21.098 188.842 18.5326 184.776 18.5326Z" fill="#F15D4A"/>
<path d="M209.179 34.3157H208.792V24.6518C208.792 20.8868 208.065 18.6629 203.567 18.6629C199.075 18.6629 198.086 20.8464 198.086 24.6518V34.3157H195.521V16.74H195.732H196.716L197.489 19.8625C198.176 18.0654 200.058 16.4839 204.255 16.4839C210.203 16.4839 211.362 19.8175 211.362 24.8674V34.3202H209.179V34.3157Z" fill="#F15D4A"/>
<path d="M217.652 18.8786V29.185C217.652 31.5797 218.766 32.5187 223.093 32.3075V34.4012C217.441 34.7426 215.046 33.3768 215.046 29.185V18.8786H212.647L212.606 17.2522L215.046 16.6951V12.418H217.571V16.7355H223.093V18.8741H217.652V18.8786Z" fill="#F15D4A"/>
<path d="M232.081 34.4865C224.928 34.4865 223.306 30.1689 223.306 25.465C223.306 20.8464 224.973 16.4839 232.036 16.4839C238.712 16.4839 240.298 21.1025 239.957 26.6196H226.002C226.173 30.0835 227.759 32.4782 231.995 32.4782C235.675 32.4782 237.005 30.6811 237.301 28.8435H239.997C239.696 31.8357 237.688 34.4865 232.081 34.4865ZM231.82 18.5326C227.368 18.5326 226.128 21.3136 225.998 24.5619H237.301V24.4766C237.342 21.098 235.886 18.5326 231.82 18.5326Z" fill="#F15D4A"/>
<path d="M53.1632 47.8209C50.7911 47.8209 50.1755 46.3428 50.1755 44.7479C50.1755 43.1529 50.818 41.6748 53.1363 41.6748C54.9693 41.6748 55.832 42.6408 55.832 44.1324H54.556C54.4661 43.2113 54.1022 42.6992 53.1048 42.6992C51.8154 42.6992 51.4515 43.5797 51.4515 44.7344C51.4515 45.8756 51.8019 46.7516 53.1228 46.7516C54.1157 46.7516 54.4706 46.2529 54.5605 45.3903H55.8365C55.8275 46.8685 54.9918 47.8209 53.1632 47.8209Z" fill="#22314E"/>
<path d="M61.516 47.7314L61.2509 46.8238C60.9724 47.2911 60.1682 47.7898 58.9192 47.7898C57.6298 47.7898 56.574 47.2327 56.574 45.9747C56.574 44.8605 57.3063 44.4247 59.0675 44.2045L60.9589 43.9844C60.932 43.1218 60.6085 42.6366 59.4044 42.6366C58.2902 42.6366 57.9847 43.0903 57.9847 43.8361L56.7672 43.8496C56.7672 42.6051 57.2793 41.6392 59.3909 41.6392C61.8395 41.6392 62.19 42.7084 62.19 44.3169V47.7269H61.516V47.7314ZM60.9589 44.9638L59.2607 45.1525C58.2183 45.2828 57.8679 45.476 57.8679 45.9567C57.8679 46.5138 58.3351 46.8193 59.2157 46.8193C60.3165 46.8193 60.9589 46.1903 60.9589 45.1525V44.9638Z" fill="#22314E"/>
<path d="M70.2917 47.7315V44.1283C70.2917 43.2926 70.1299 42.7085 69.1775 42.7085C68.243 42.7085 68.0363 43.2791 68.0363 44.1283V47.7315H67.9015H66.9041H66.7738V44.1283C66.7738 43.2926 66.6121 42.7085 65.6596 42.7085C64.7206 42.7085 64.5004 43.2791 64.5004 44.1283V47.7315H63.3548H63.2515V41.7291H63.7052H63.9254L64.2039 42.5064C64.3926 42.1245 64.9363 41.6572 66.0505 41.6572C66.9445 41.6572 67.4432 41.9942 67.7083 42.5783C67.8835 42.1514 68.4272 41.6572 69.5683 41.6572C71.2082 41.6572 71.5451 42.7984 71.5451 44.2046V47.7315H70.2917Z" fill="#22314E"/>
<path d="M75.9201 47.8034C74.5004 47.8034 73.8534 47.2777 73.6198 46.8688L73.3592 47.7315H72.6853V46.9991V39.4468H73.9163V42.448C74.1634 42.0526 74.7654 41.6303 75.956 41.6303C77.9329 41.6303 78.49 43.0814 78.49 44.7213C78.4855 46.3567 77.9014 47.8034 75.9201 47.8034ZM75.5562 42.6816C74.1365 42.6816 73.8984 43.5442 73.8984 44.7168C73.8984 45.9613 74.1904 46.7835 75.5832 46.7835C76.931 46.7835 77.223 45.9478 77.223 44.7168C77.2275 43.5172 76.931 42.6816 75.5562 42.6816Z" fill="#22314E"/>
<path d="M80.102 41.0418C79.5449 41.0418 79.1765 40.898 79.1765 40.296C79.1765 39.6805 79.5449 39.5322 80.102 39.5322C80.6457 39.5322 80.9961 39.6805 80.9961 40.296C80.9961 40.898 80.6457 41.0418 80.102 41.0418ZM79.7201 47.7316H79.4685V41.7292H80.713V47.7316H79.7201Z" fill="#22314E"/>
<path d="M84.6431 47.8036C82.2844 47.8036 81.6824 46.3254 81.6824 44.7305C81.6824 43.149 82.2979 41.6709 84.6566 41.6709C86.9883 41.6709 87.6308 43.149 87.6308 44.7305C87.6353 46.3434 86.9883 47.8036 84.6431 47.8036ZM84.6611 42.6953C83.2683 42.6953 82.9583 43.6028 82.9583 44.7305C82.9583 45.8717 83.2683 46.7792 84.6431 46.7792C86.0493 46.7792 86.3593 45.8851 86.3593 44.7305C86.3593 43.6208 86.0763 42.6953 84.6611 42.6953Z" fill="#22314E"/>
<path d="M96.7457 47.7761C96.7457 48.9307 96.3233 50.1348 93.9467 50.1348C91.7362 50.1348 91.1611 49.2542 91.1611 48.0861H92.4056C92.4506 48.7016 92.6258 49.1689 93.9601 49.1689C95.2765 49.1689 95.4967 48.5983 95.4967 47.866V47.0752C95.2316 47.502 94.6924 47.8345 93.5917 47.8345C91.6284 47.8345 91.233 46.7517 91.233 45.04V41.7153H92.4641V45.1388C92.4641 46.2081 92.6707 46.7787 93.9422 46.7787C95.2181 46.7787 95.4967 46.1632 95.4967 45.0804V41.7153H96.7412V47.7761H96.7457Z" fill="#22314E"/>
<path d="M100.703 47.8036C98.3442 47.8036 97.7422 46.3254 97.7422 44.7305C97.7422 43.149 98.3577 41.6709 100.716 41.6709C103.048 41.6709 103.691 43.149 103.691 44.7305C103.695 46.3434 103.048 47.8036 100.703 47.8036ZM100.721 42.6953C99.3281 42.6953 99.0226 43.6028 99.0226 44.7305C99.0226 45.8717 99.3281 46.7792 100.707 46.7792C102.114 46.7792 102.424 45.8851 102.424 44.7305C102.419 43.6208 102.141 42.6953 100.721 42.6953Z" fill="#22314E"/>
<path d="M106.157 47.439C106.099 48.0096 105.879 49.2676 105.879 49.2676H105.074L105.178 47.7895C105.137 47.7895 105.088 47.7895 105.061 47.776C104.621 47.7311 104.387 47.5424 104.387 47.0437C104.387 46.4281 104.755 46.2979 105.299 46.2979C105.825 46.2979 106.193 46.4281 106.193 47.0437C106.184 47.1335 106.171 47.2773 106.157 47.439Z" fill="#22314E"/>
<path d="M112.475 47.8209C110.103 47.8209 109.483 46.3428 109.483 44.7479C109.483 43.1529 110.13 41.6748 112.448 41.6748C114.276 41.6748 115.144 42.6408 115.144 44.1324H113.868C113.782 43.2113 113.414 42.6992 112.416 42.6992C111.127 42.6992 110.759 43.5797 110.759 44.7344C110.759 45.8756 111.109 46.7516 112.43 46.7516C113.423 46.7516 113.778 46.2529 113.863 45.3903H115.139C115.139 46.8685 114.303 47.8209 112.475 47.8209Z" fill="#22314E"/>
<path d="M120.826 47.7314L120.561 46.8238C120.283 47.2911 119.479 47.7898 118.23 47.7898C116.94 47.7898 115.884 47.2327 115.884 45.9747C115.884 44.8605 116.617 44.4247 118.373 44.2045L120.265 43.9844C120.233 43.1218 119.91 42.6366 118.71 42.6366C117.596 42.6366 117.286 43.0903 117.286 43.8361L116.073 43.8496C116.073 42.6051 116.585 41.6392 118.697 41.6392C121.145 41.6392 121.496 42.7084 121.496 44.3169V47.7269H120.826V47.7314ZM120.269 44.9638L118.571 45.1525C117.533 45.2828 117.178 45.476 117.178 45.9567C117.178 46.5138 117.65 46.8193 118.526 46.8193C119.627 46.8193 120.269 46.1903 120.269 45.1525V44.9638Z" fill="#22314E"/>
<path d="M129.604 47.7315V44.1283C129.604 43.2926 129.442 42.7085 128.49 42.7085C127.551 42.7085 127.349 43.2791 127.349 44.1283V47.7315H127.219H126.221H126.091V44.1283C126.091 43.2926 125.929 42.7085 124.977 42.7085C124.038 42.7085 123.818 43.2791 123.818 44.1283V47.7315H122.676H122.573V41.7291H123.027H123.247L123.525 42.5064C123.714 42.1245 124.258 41.6572 125.372 41.6572C126.266 41.6572 126.765 41.9942 127.025 42.5783C127.201 42.1514 127.744 41.6572 128.885 41.6572C130.53 41.6572 130.862 42.7984 130.862 44.2046V47.7315H129.604Z" fill="#22314E"/>
<path d="M135.232 47.8034C133.812 47.8034 133.17 47.2777 132.931 46.8688L132.666 47.7315H131.992V46.9991V39.4468H133.223V42.448C133.471 42.0526 134.073 41.6303 135.259 41.6303C137.236 41.6303 137.793 43.0814 137.793 44.7213C137.797 46.3567 137.213 47.8034 135.232 47.8034ZM134.868 42.6816C133.448 42.6816 133.214 43.5442 133.214 44.7168C133.214 45.9613 133.506 46.7835 134.899 46.7835C136.247 46.7835 136.539 45.9478 136.539 44.7168C136.539 43.5172 136.247 42.6816 134.868 42.6816Z" fill="#22314E"/>
<path d="M139.407 41.0418C138.85 41.0418 138.486 40.898 138.486 40.296C138.486 39.6805 138.854 39.5322 139.407 39.5322C139.951 39.5322 140.301 39.6805 140.301 40.296C140.305 40.898 139.951 41.0418 139.407 41.0418ZM139.029 47.7316H138.778V41.7292H140.022V47.7316H139.029Z" fill="#22314E"/>
<path d="M145.919 47.7314L145.654 46.8238C145.375 47.2911 144.567 47.7898 143.322 47.7898C142.033 47.7898 140.977 47.2327 140.977 45.9747C140.977 44.8605 141.709 44.4247 143.471 44.2045L145.362 43.9844C145.335 43.1218 145.012 42.6366 143.807 42.6366C142.693 42.6366 142.383 43.0903 142.383 43.8361L141.17 43.8496C141.17 42.6051 141.682 41.6392 143.794 41.6392C146.243 41.6392 146.593 42.7084 146.593 44.3169V47.7269H145.919V47.7314ZM145.362 44.9638L143.664 45.1525C142.626 45.2828 142.271 45.476 142.271 45.9567C142.271 46.5138 142.743 46.8193 143.619 46.8193C144.72 46.8193 145.362 46.1903 145.362 45.1525V44.9638Z" fill="#22314E"/>
<path d="M151.899 42.7396V46.0059C151.899 46.5764 152.137 46.8235 153.436 46.7651V47.776C151.459 47.8928 150.623 47.4256 150.623 46.0059V42.7396H149.77L149.756 41.9938L150.619 41.7152V40.2236H151.863V41.7152H153.431V42.7396H151.899Z" fill="#22314E"/>
<path d="M156.719 47.8036C154.36 47.8036 153.758 46.3254 153.758 44.7305C153.758 43.149 154.373 41.6709 156.732 41.6709C159.059 41.6709 159.706 43.149 159.706 44.7305C159.706 46.3434 159.064 47.8036 156.719 47.8036ZM156.732 42.6953C155.339 42.6953 155.034 43.6028 155.034 44.7305C155.034 45.8717 155.344 46.7792 156.719 46.7792C158.125 46.7792 158.435 45.8851 158.435 44.7305C158.43 43.6208 158.156 42.6953 156.732 42.6953Z" fill="#22314E"/>
<path d="M165.614 47.7181L165.335 46.869C165.115 47.2778 164.455 47.8035 163.035 47.8035C161.058 47.8035 160.47 46.3523 160.47 44.7169C160.47 43.077 161.027 41.6259 163.022 41.6259C164.208 41.6259 164.81 42.0482 165.057 42.4436V39.4424H166.288V46.9947V47.7271L165.614 47.7181ZM163.404 42.6817C162.024 42.6817 161.746 43.5173 161.746 44.7169C161.746 45.93 162.024 46.7656 163.39 46.7656C164.783 46.7656 165.075 45.9434 165.075 44.7169C165.07 43.5623 164.823 42.6817 163.404 42.6817Z" fill="#22314E"/>
<path d="M170.248 47.8036C167.889 47.8036 167.287 46.3254 167.287 44.7305C167.287 43.149 167.902 41.6709 170.261 41.6709C172.593 41.6709 173.235 43.149 173.235 44.7305C173.235 46.3434 172.593 47.8036 170.248 47.8036ZM170.261 42.6953C168.868 42.6953 168.563 43.6028 168.563 44.7305C168.563 45.8717 168.868 46.7792 170.248 46.7792C171.649 46.7792 171.959 45.8851 171.959 44.7305C171.959 43.6208 171.681 42.6953 170.261 42.6953Z" fill="#22314E"/>
<path d="M29.74 44.5953C20.7319 52.8486 15.7719 52.8486 6.75939 44.5953C-2.25313 36.3421 -2.25313 31.7999 6.75939 23.5466C15.7719 15.2934 20.7319 15.2979 29.74 23.5466C38.7525 31.7999 38.7525 36.3421 29.74 44.5953Z" fill="#22314E"/>
<path d="M27.8314 29.8998C20.324 36.7738 16.1906 36.7738 8.67868 29.8998C1.17124 23.0214 1.17124 19.234 8.67868 12.36C16.1906 5.48156 20.324 5.48156 27.8314 12.36C35.3389 19.2385 35.3389 23.0214 27.8314 29.8998Z" fill="#F15D4A"/>
<path d="M21.2245 23.852C18.8927 25.986 17.6078 25.986 15.2806 23.852C12.9488 21.7179 12.9488 20.5408 15.2806 18.4067C17.6123 16.2726 18.8927 16.2726 21.2245 18.4067C23.5518 20.5453 23.5518 21.7179 21.2245 23.852Z" fill="white"/>
<path d="M23.2099 11.7396C19.3237 15.2979 17.1851 15.2979 13.3034 11.7396C9.41711 8.18136 9.41711 6.22251 13.3034 2.66871C17.1851 -0.889571 19.3237 -0.889571 23.2099 2.66871C27.0917 6.22251 27.0917 8.18136 23.2099 11.7396Z" fill="#F0BA54"/>
</svg>
